<mxfile host="app.diagrams.net" modified="2023-11-07T00:43:25.235Z" agent="Mozilla/5.0 (Macintosh; Intel Mac OS X 10_15_7) AppleWebKit/537.36 (KHTML, like Gecko) Chrome/119.0.0.0 Safari/537.36" version="22.0.8" etag="T9DMywkbYFjQRStyfrnm" type="github">
  <diagram name="Page-1" id="L8fimmOQG6hapIzLWbeB">
    <mxGraphModel>
      <root>
        <mxCell id="0" />
        <mxCell id="1" parent="0" />
      </root>
    </mxGraphModel>
  </diagram>
</mxfile>
